<?xml version="1.0" encoding="UTF-8" standalone="no"?>
<!-- Created with Inkscape (http://www.inkscape.org/) -->

<svg
   xmlns:dc="http://purl.org/dc/elements/1.1/"
   xmlns:cc="http://creativecommons.org/ns#"
   xmlns:rdf="http://www.w3.org/1999/02/22-rdf-syntax-ns#"
   xmlns:svg="http://www.w3.org/2000/svg"
   xmlns="http://www.w3.org/2000/svg"
   xmlns:sodipodi="http://sodipodi.sourceforge.net/DTD/sodipodi-0.dtd"
   xmlns:inkscape="http://www.inkscape.org/namespaces/inkscape"
   width="1024"
   height="987.19385"
   id="svg3031"
   version="1.1"
   inkscape:version="0.48.4 r9939"
   sodipodi:docname="svt-stranka.svg"
   inkscape:export-filename="/home/kamila/creations/svt.png"
   inkscape:export-xdpi="90"
   inkscape:export-ydpi="90">
  <defs
     id="defs3033">
    <linearGradient
       id="linearGradient4516">
      <stop
         style="stop-color:#005200;stop-opacity:1;"
         offset="0"
         id="stop4518" />
      <stop
         id="stop4528"
         offset="0.89393938"
         style="stop-color:#005200;stop-opacity:0.07142857;" />
      <stop
         style="stop-color:#005200;stop-opacity:0"
         offset="1"
         id="stop4520" />
    </linearGradient>
  </defs>
  <sodipodi:namedview
     id="base"
     pagecolor="#ffffff"
     bordercolor="#666666"
     borderopacity="1.0"
     inkscape:pageopacity="0.0"
     inkscape:pageshadow="2"
     inkscape:zoom="0.45254834"
     inkscape:cx="771.09152"
     inkscape:cy="283.34531"
     inkscape:document-units="px"
     inkscape:current-layer="layer1"
     showgrid="false"
     inkscape:snap-page="true"
     inkscape:snap-bbox="false"
     inkscape:object-nodes="true"
     fit-margin-top="0"
     fit-margin-left="0"
     fit-margin-right="0"
     fit-margin-bottom="0"
     inkscape:snap-global="false"
     inkscape:window-width="1598"
     inkscape:window-height="865"
     inkscape:window-x="0"
     inkscape:window-y="34"
     inkscape:window-maximized="0"
     showguides="false"
     inkscape:guide-bbox="true"
     inkscape:snap-center="true"
     inkscape:snap-object-midpoints="true">
    <sodipodi:guide
       orientation="1,0"
       position="106.06602,745.29055"
       id="guide5084" />
    <sodipodi:guide
       orientation="1,0"
       position="914.99617,742.46212"
       id="guide5086" />
    <sodipodi:guide
       orientation="1,0"
       position="376.18081,660.43053"
       id="guide5088" />
    <sodipodi:guide
       orientation="1,0"
       position="661.85195,511.93811"
       id="guide5090" />
    <sodipodi:guide
       orientation="1,0"
       position="393.15137,582.64878"
       id="guide5092" />
    <sodipodi:guide
       orientation="1,0"
       position="644.88138,749.53319"
       id="guide5094" />
  </sodipodi:namedview>
  <metadata
     id="metadata3036">
    <rdf:RDF>
      <cc:Work
         rdf:about="">
        <dc:format>image/svg+xml</dc:format>
        <dc:type
           rdf:resource="http://purl.org/dc/dcmitype/StillImage" />
        <dc:title></dc:title>
      </cc:Work>
    </rdf:RDF>
  </metadata>
  <g
     inkscape:label="Layer 1"
     inkscape:groupmode="layer"
     id="layer1"
     transform="translate(0,-2569.8928)">
    <g
       id="g5080"
       transform="translate(0,94)">
      <rect
         style="fill:#005200;fill-opacity:1;stroke:none"
         id="rect3836"
         width="1024"
         height="121.61234"
         x="0"
         y="2557.0867"
         ry="0" />
      <rect
         ry="0"
         y="2562.5867"
         x="0"
         height="110.61234"
         width="1024"
         id="rect3058"
         style="fill:#3daa3d;fill-opacity:1;stroke:none" />
    </g>
    <text
       xml:space="preserve"
       style="font-size:32.15362167px;font-style:normal;font-weight:normal;line-height:125%;letter-spacing:0px;word-spacing:0px;fill:#ffffff;fill-opacity:1;stroke:none;font-family:Sans"
       x="391.4191"
       y="2706.3726"
       id="text3838"
       sodipodi:linespacing="125%"><tspan
         sodipodi:role="line"
         id="tspan3840"
         x="391.4191"
         y="2706.3726"
         style="font-weight:bold;fill:#ffffff"><tspan
   style="font-size:37.78050613px;fill:#ffffff"
   id="tspan3844">Š</tspan>TUDENTSKÝ <tspan
   style="font-size:37.78050613px;fill:#ffffff"
   id="tspan3848">V</tspan>ÝVOJOVÝ <tspan
   style="font-size:37.78050613px;fill:#ffffff"
   id="tspan3850">T</tspan>ÍM</tspan><tspan
         sodipodi:role="line"
         x="391.4191"
         y="2747.9895"
         id="tspan3842"
         style="font-weight:normal;fill:#ffffff">FMFI UK</tspan></text>
    <g
       id="g4312"
       transform="translate(0,400)">
      <rect
         transform="scale(1,-1)"
         ry="0"
         y="-3157.0867"
         x="0"
         height="27.933163"
         width="1024"
         id="rect3852"
         style="fill:#005200;fill-opacity:1;stroke:none" />
      <text
         sodipodi:linespacing="125%"
         id="text3856"
         y="3148.8818"
         x="379.42578"
         style="font-size:40px;font-style:normal;font-weight:normal;line-height:125%;letter-spacing:0px;word-spacing:0px;fill:#3daa3d;fill-opacity:1;stroke:none;font-family:Sans"
         xml:space="preserve"><tspan
           style="font-size:16px"
           y="3148.8818"
           x="379.42578"
           id="tspan3858"
           sodipodi:role="line">© Študentský vývojový tím 2015</tspan></text>
    </g>
    <text
       xml:space="preserve"
       style="font-size:40px;font-style:normal;font-weight:normal;line-height:125%;letter-spacing:0px;word-spacing:0px;fill:#000000;fill-opacity:1;stroke:none;font-family:Sans"
       x="399"
       y="259"
       id="text3890"
       sodipodi:linespacing="125%"
       transform="translate(0,2557.0866)"><tspan
         sodipodi:role="line"
         id="tspan3892"
         x="399"
         y="259"></tspan></text>
    <flowRoot
       xml:space="preserve"
       id="flowRoot3898"
       style="font-size:40px;font-style:normal;font-weight:normal;line-height:125%;letter-spacing:0px;word-spacing:0px;fill:#000000;fill-opacity:1;stroke:none;font-family:Sans"
       transform="translate(91,2769.5008)"><flowRegion
         id="flowRegion3900"><rect
           id="rect3902"
           width="790.94287"
           height="94.473076"
           x="29.374676"
           y="149.41422" /></flowRegion><flowPara
         id="flowPara3908"
         style="font-size:14px">Sme študenti FMFI UK. Vyvíjame a prevádzkujeme softvér (s otvoreným zdrojovým kódom), ktorý nám, ostatným študentom i ďalším ľuďom z fakulty a univerzity uľahčuje život. Baví nás to a ešte sa sa popri tom naučíme veľa nových vecí.</flowPara></flowRoot>    <g
       id="g3924"
       transform="translate(251.96551,28.07316)">
      <rect
         y="2809.2002"
         x="504.31372"
         height="29.7729"
         width="159.37259"
         id="rect3910"
         style="fill:#8f0000;fill-opacity:1;stroke:none" />
      <text
         sodipodi:linespacing="125%"
         id="text3920"
         y="2831.0867"
         x="517"
         style="font-size:40px;font-style:normal;font-weight:normal;line-height:125%;letter-spacing:0px;word-spacing:0px;fill:#ffffff;fill-opacity:1;stroke:none;font-family:Sans"
         xml:space="preserve"><tspan
           style="font-size:24px;fill:#ffffff;fill-opacity:1"
           y="2831.0867"
           x="517"
           id="tspan3922"
           sodipodi:role="line">Napíš nám!</tspan></text>
    </g>
    <flowRoot
       transform="translate(-204,2731.0866)"
       style="font-size:40px;font-style:normal;font-weight:normal;line-height:125%;letter-spacing:0px;word-spacing:0px;fill:#000000;fill-opacity:1;stroke:none;font-family:Sans"
       id="flowRoot3929"
       xml:space="preserve"><flowRegion
         id="flowRegion3931"><rect
           y="194"
           x="323"
           height="200"
           width="228"
           id="rect3933" /></flowRegion><flowPara
         style="font-size:14px"
         id="flowPara3966" /></flowRoot>    <text
       sodipodi:linespacing="125%"
       id="text3984"
       y="3048.0867"
       x="117"
       style="font-size:40px;font-style:normal;font-weight:bold;line-height:125%;letter-spacing:0px;word-spacing:0px;fill:#3daa3d;fill-opacity:1;stroke:none;font-family:Sans;-inkscape-font-specification:Sans Bold"
       xml:space="preserve"><tspan
         style="font-size:24px;font-weight:bold;fill:#3daa3d;-inkscape-font-specification:Sans Bold"
         id="tspan3986"
         y="3048.0867"
         x="117"
         sodipodi:role="line">Naše projekty</tspan></text>
    <flowRoot
       xml:space="preserve"
       id="flowRoot4075"
       style="font-size:40px;font-style:normal;font-weight:normal;line-height:125%;letter-spacing:0px;word-spacing:0px;fill:#000000;fill-opacity:1;stroke:none;font-family:Sans"
       transform="translate(388,2871.0866)"><flowRegion
         id="flowRegion4077"><rect
           id="rect4079"
           width="228"
           height="200"
           x="323"
           y="194" /></flowRegion><flowPara
         id="flowPara4081"
         style="font-size:14px">Tomáš Belan</flowPara><flowPara
         id="flowPara4083"
         style="font-size:14px">Adam Dej</flowPara><flowPara
         id="flowPara4085"
         style="font-size:14px">Richard Ostertág</flowPara><flowPara
         id="flowPara4087"
         style="font-size:14px">Dušan Plavák</flowPara><flowPara
         id="flowPara4089"
         style="font-size:14px">Kamila Součková</flowPara><flowPara
         id="flowPara4091"
         style="font-size:14px">Peter Šulík</flowPara><flowPara
         id="flowPara4093"
         style="font-size:14px">Martin Šuník</flowPara><flowPara
         id="flowPara4095"
         style="font-size:14px">Marek Šuppa</flowPara><flowPara
         id="flowPara4097"
         style="font-size:14px">Jakub Trančík</flowPara><flowPara
         id="flowPara4099"
         style="font-size:14px">Kristián Valentín</flowPara><flowPara
         id="flowPara4101"
         style="font-size:14px">Tomáš Vinař</flowPara><flowPara
         id="flowPara4103"
         style="font-size:14px" /><flowPara
         id="flowPara4105"
         style="font-size:14px" /><flowPara
         id="flowPara4107"
         style="font-size:14px" /><flowPara
         id="flowPara4109"
         style="font-size:14px" /><flowPara
         id="flowPara4111"
         style="font-size:14px" /><flowPara
         id="flowPara4113"
         style="font-size:14px" /><flowPara
         id="flowPara4115"
         style="font-size:14px" /><flowPara
         id="flowPara4117"
         style="font-size:14px" /></flowRoot>    <text
       xml:space="preserve"
       style="font-size:40px;font-style:normal;font-weight:bold;line-height:125%;letter-spacing:0px;word-spacing:0px;fill:#3daa3d;fill-opacity:1;stroke:none;font-family:Sans;-inkscape-font-specification:Sans Bold"
       x="709"
       y="3048.0867"
       id="text4119"
       sodipodi:linespacing="125%"><tspan
         sodipodi:role="line"
         x="709"
         y="3048.0867"
         id="tspan4121"
         style="font-size:24px;font-weight:bold;fill:#3daa3d;-inkscape-font-specification:Sans Bold">Členovia</tspan></text>
    <flowRoot
       transform="translate(388,3149.0866)"
       style="font-size:40px;font-style:normal;font-weight:normal;line-height:125%;letter-spacing:0px;word-spacing:0px;fill:#000000;fill-opacity:1;stroke:none;font-family:Sans"
       id="flowRoot4317"
       xml:space="preserve"><flowRegion
         id="flowRegion4319"><rect
           y="194"
           x="323"
           height="200"
           width="228"
           id="rect4321" /></flowRegion><flowPara
         style="font-size:14px"
         id="flowPara4359">Fero Hajnovič</flowPara><flowPara
         style="font-size:14px"
         id="flowPara4498">Martin Králik</flowPara><flowPara
         style="font-size:14px"
         id="flowPara4500">Jakub Marek</flowPara><flowPara
         style="font-size:14px"
         id="flowPara4502">Jakub Markoš</flowPara><flowPara
         style="font-size:14px"
         id="flowPara4504">Peter Perešíni</flowPara><flowPara
         style="font-size:14px"
         id="flowPara4506">Martin Sucha</flowPara><flowPara
         style="font-size:14px"
         id="flowPara4508">Ivan Trančík</flowPara><flowPara
         style="font-size:14px"
         id="flowPara4510" /></flowRoot>    <text
       sodipodi:linespacing="125%"
       id="text4361"
       y="3326.0867"
       x="709"
       style="font-size:40px;font-style:normal;font-weight:bold;line-height:125%;letter-spacing:0px;word-spacing:0px;fill:#3daa3d;fill-opacity:1;stroke:none;font-family:Sans;-inkscape-font-specification:Sans Bold"
       xml:space="preserve"><tspan
         style="font-size:24px;font-weight:bold;fill:#3daa3d;-inkscape-font-specification:Sans Bold"
         id="tspan4363"
         y="3326.0867"
         x="709"
         sodipodi:role="line">Bývalí členovia</tspan></text>
    <text
       xml:space="preserve"
       style="font-size:40px;font-style:normal;font-weight:normal;line-height:125%;letter-spacing:0px;word-spacing:0px;fill:#005200;fill-opacity:1;stroke:none;font-family:Sans"
       x="115"
       y="3104.0867"
       id="text4532"
       sodipodi:linespacing="125%"><tspan
         sodipodi:role="line"
         x="115"
         y="3104.0867"
         id="tspan4534"
         style="font-size:18px;font-weight:bold;-inkscape-font-specification:Sans Bold">Votr</tspan></text>
    <flowRoot
       xml:space="preserve"
       id="flowRoot4536"
       style="font-size:40px;font-style:normal;font-weight:normal;line-height:125%;letter-spacing:0px;word-spacing:0px;fill:#000000;fill-opacity:1;stroke:none;font-family:Sans"
       transform="translate(-10,2663.0867)"><flowRegion
         id="flowRegion4538"><rect
           id="rect4540"
           width="510.82336"
           height="70.908081"
           x="126"
           y="454" /></flowRegion><flowPara
         id="flowPara4546"
         style="font-size:14px">Votr ponúka študentom jednoduchší a pohodlnejší spôsob, ako robiť najčastejšie činnosti zo systému AIS. Zapíšte sa na skúšky, prezrite si vaše hodnotenia a skontrolujte si počet kreditov bez zbytočného klikania.</flowPara><flowPara
         id="flowPara4722"
         style="font-size:14px" /><flowPara
         id="flowPara4724"
         style="font-size:14px" /></flowRoot>    <flowRoot
       transform="translate(70,2635.0867)"
       style="font-size:40px;font-style:normal;font-weight:normal;line-height:125%;letter-spacing:0px;word-spacing:0px;fill:#005200;fill-opacity:1;stroke:none;font-family:Sans"
       id="flowRoot4570"
       xml:space="preserve"><flowRegion
         id="flowRegion4572"><rect
           y="454"
           x="126"
           height="46"
           width="299"
           id="rect4574"
           style="fill:#005200" /></flowRegion><flowPara
         style="font-size:14px;fill:#005200"
         id="flowPara4580">https://votr.uniba.sk/</flowPara></flowRoot>    <path
       style="fill:none;stroke:#005200;stroke-width:1.09262145;stroke-linecap:butt;stroke-linejoin:miter;stroke-miterlimit:4;stroke-opacity:1;stroke-dasharray:none"
       d="m 657.19105,3026.6979 0,437.3728"
       id="path4512"
       inkscape:connector-curvature="0" />
    <text
       xml:space="preserve"
       style="font-size:40px;font-style:normal;font-weight:normal;line-height:125%;letter-spacing:0px;word-spacing:0px;fill:#005200;fill-opacity:1;stroke:none;font-family:Sans"
       x="115"
       y="3252.0867"
       id="text4972"
       sodipodi:linespacing="125%"><tspan
         sodipodi:role="line"
         x="115"
         y="3252.0867"
         id="tspan4974"
         style="font-size:18px;font-weight:bold;-inkscape-font-specification:Sans Bold">Anketa</tspan></text>
    <flowRoot
       xml:space="preserve"
       id="flowRoot4976"
       style="font-size:40px;font-style:normal;font-weight:normal;line-height:125%;letter-spacing:0px;word-spacing:0px;fill:#000000;fill-opacity:1;stroke:none;font-family:Sans"
       transform="translate(-10,2813.0867)"><flowRegion
         id="flowRegion4978"><rect
           id="rect4980"
           width="400.82336"
           height="26.908117"
           x="126"
           y="454" /></flowRegion><flowPara
         id="flowPara4982"
         style="font-size:14px">Študentská anketa UK. Prezentuj svoj názor!</flowPara><flowPara
         id="flowPara4984"
         style="font-size:14px" /><flowPara
         id="flowPara4986"
         style="font-size:14px" /></flowRoot>    <flowRoot
       transform="translate(104,2783.0867)"
       style="font-size:40px;font-style:normal;font-weight:normal;line-height:125%;letter-spacing:0px;word-spacing:0px;fill:#005200;fill-opacity:1;stroke:none;font-family:Sans"
       id="flowRoot4988"
       xml:space="preserve"><flowRegion
         id="flowRegion4990"><rect
           y="454"
           x="126"
           height="46"
           width="299"
           id="rect4992"
           style="fill:#005200" /></flowRegion><flowPara
         style="font-size:14px;fill:#005200"
         id="flowPara4994">https://anketa.uniba.sk/</flowPara></flowRoot>    <text
       xml:space="preserve"
       style="font-size:40px;font-style:normal;font-weight:normal;line-height:125%;letter-spacing:0px;word-spacing:0px;fill:#000000;fill-opacity:1;stroke:none;font-family:Sans"
       x="14.142136"
       y="594.12787"
       id="text5046"
       sodipodi:linespacing="125%"
       transform="translate(0,2557.0867)"><tspan
         sodipodi:role="line"
         id="tspan5048"
         x="14.142136"
         y="594.12787"></tspan></text>
    <g
       id="g5071"
       transform="translate(297,102.80614)">
      <path
         transform="translate(0,2557.0867)"
         d="m 61,52 c 0,69.03559 -55.9644063,125 -125,125 -69.03559,0 -125,-55.96441 -125,-125 0,-69.035594 55.96441,-125 125,-125 69.0355937,0 125,55.964406 125,125 z"
         sodipodi:ry="125"
         sodipodi:rx="125"
         sodipodi:cy="52"
         sodipodi:cx="-64"
         id="path5069"
         style="fill:#ffffff;fill-opacity:1;stroke:#005200;stroke-width:6;stroke-miterlimit:4;stroke-dasharray:none"
         sodipodi:type="arc" />
      <g
         style="fill:#005200;fill-opacity:1;stroke:none"
         transform="matrix(-0.31966193,0,0,0.31966193,302.79509,2179.4494)"
         id="g2995">
        <path
           sodipodi:nodetypes="ccscssssssscccscc"
           inkscape:transform-center-y="-4.7842558"
           inkscape:transform-center-x="76.857586"
           inkscape:connector-curvature="0"
           id="path4062"
           d="m 954.89039,1254.3984 c 12.00536,-15.6411 32.58195,-15.7348 52.88761,-9.377 0.8311,0.248 15.9394,-2.2032 33.5741,-5.4472 45.3412,-8.341 87.4674,-15.1986 92.7446,-15.0976 2.4735,0.047 5.6165,-0.1417 6.9846,-0.4201 4.5666,-0.9292 10.7402,5.4187 14.2109,14.6122 2.8471,7.5411 3.0257,9.4109 1.5219,15.9252 -2.6112,11.3091 -14.7616,26.553 -22.3265,28.0111 -6.2222,1.1993 -13.8721,1.3142 -21.956,0.3298 -4.825,-0.5875 -15.2952,-1.1198 -23.267,-1.1828 -21.7713,-0.1718 -50.4099,-1.098 -74.7532,-2.4177 -20.94822,-1.1357 -21.89125,-1.1009 -25.04158,0.9225 -8.16077,2.2978 -13.87144,-4.8125 -18.54921,-3.914 -6.04924,1.1622 -6.4403,5.0459 -7.8388,6.8602 -1.33302,-0.2858 -2.77936,-3.3186 -4.78313,-3.027 -2.00376,0.2915 -2.68708,4.0719 -4.24124,4.2627 -5.62412,-9.3394 -4.91404,-19.649 0.8333,-30.0403 z"
           style="fill:#005200;fill-opacity:1;stroke:none" />
        <path
           style="fill:#005200;fill-opacity:1;stroke:none"
           d="m 1069.3681,1568.0523 c -1.0277,-1.2002 -2.844,-1.9281 -4.8109,-1.9281 -1.8165,0 -3.16,-0.4923 -3.16,-1.1579 0,-1.7541 10.313,-11.4144 17.122,-16.0383 6.479,-4.3998 19.0718,-10.7618 21.3017,-10.7618 3.3678,0 8.8156,-2.3284 8.8158,-3.7678 2e-4,-0.8441 -1.0476,-5.2221 -2.3284,-9.7291 -5.6248,-19.794 -12.5173,-44.2159 -13.6043,-48.2034 -2.6312,-9.6522 1.4402,-22.1468 12.0943,-37.1166 7.8277,-10.9986 37.3661,-40.7429 51.5596,-51.9192 15.0765,-11.8715 17.9497,-13.158 29.3522,-13.144 10.6009,0.014 16.6265,1.3863 25.2547,5.7549 13.4853,6.8277 20.0832,15.2438 20.0992,25.6381 0.014,8.9388 -5.2579,23.048 -12.6835,33.9463 -1.703,2.4994 -9.5011,11.0517 -17.3292,19.0053 -20.1099,20.4318 -32.0245,34.2528 -35.4664,41.1407 l -2.9606,5.9245 0,29.6693 c 0,16.9445 -0.4033,30.73 -0.9402,32.1423 l -0.9402,2.4729 -44.8624,0 c -43.6695,0 -44.9064,-0.051 -46.5134,-1.9281 z m 103.8609,-19.7873 c 0,-0.8084 -1.0845,-1.8823 -2.4101,-2.3862 -1.3256,-0.5041 -2.4102,-1.3221 -2.4102,-1.8178 0,-1.4775 7.1864,-10.1145 11.458,-13.7709 2.1858,-1.871 7.4432,-5.2688 11.6832,-7.5509 4.24,-2.282 7.709,-4.5617 7.709,-5.0657 0,-0.5041 -1.1408,-4.5753 -2.5351,-9.0472 -1.3942,-4.4717 -2.2547,-8.4107 -1.9123,-8.7531 0.3425,-0.3425 1.8086,0.3367 3.2581,1.5092 9.9026,8.0106 20.9605,13.5032 35.8238,17.7943 4.3819,1.265 8.3532,2.9099 8.825,3.6554 0.472,0.7453 0.8647,6.84 0.8728,13.5438 0.012,10.2342 -0.2297,12.2826 -1.5102,12.7739 -0.8387,0.3218 -16.6735,0.5852 -35.1885,0.5852 -29.5232,0 -33.6635,-0.1808 -33.6635,-1.47 z m 156.179,-16.8741 c -23.2462,-2.1587 -46.538,-5.9104 -62.6046,-10.0838 -13.8623,-3.6008 -36.3847,-11.8093 -46.3721,-16.9004 -13.4361,-6.8493 -29.8724,-18.9915 -29.8242,-22.0325 0.014,-0.8635 2.1429,-3.0063 4.7315,-4.7616 5.1903,-3.5197 21.8159,-20.229 24.652,-24.7762 0.9888,-1.5853 2.5951,-3.7884 3.5697,-4.8958 0.9746,-1.1074 4.2964,-6.9906 7.3819,-13.0739 5.0773,-10.0104 5.7723,-12.135 7.3208,-22.3787 1.6356,-10.82 1.636,-11.5175 0.01,-15.8481 -2.1685,-5.7731 -4.0983,-8.5061 -10.3465,-14.6526 -10.157,-9.9915 -27.1444,-16.8638 -41.6819,-16.8622 -11.0536,10e-4 -16.4548,1.8389 -27.3395,9.3015 -10.806,7.4089 -15.0464,10.7899 -26.2227,20.9089 -11.9571,10.8256 -15.4659,13.6457 -16.9786,13.6457 -1.7471,0 -3.7531,-3.3716 -7.5562,-12.7001 -6.8973,-16.9176 -9.2954,-41.4057 -5.2589,-53.7013 l 1.9643,-5.9835 -2.4306,-5.5035 c -5.0989,-11.5449 -6.37,-21.0629 -4.3487,-32.5613 2.0273,-11.5314 2.5143,-9.2083 11.4811,-8.6978 6.2841,0.3579 18.0103,1.9751 23.1838,0.595 18.2546,-4.8699 30.3926,-17.0906 33.9847,-34.2163 0.9582,-4.5683 0.8682,-6.7523 -0.5699,-13.8176 -2.8313,-13.9106 -8.7332,-21.5891 -18.5596,-24.1465 -12.7646,-3.3221 -16.6955,0.3421 -37.5108,2.024 l -2.8922,0.2337 0.3234,-9.7704 c 0.3452,-10.432 -2.0072,-12.9215 -14.7844,-14.3391 -7.0493,-0.782 -15.8592,-2.757 -18.4256,-4.1305 -1.0429,-0.5581 -2.5097,-2.1612 -3.2595,-3.5623 -1.7218,-3.2172 -0.3987,-5.6693 3.2958,-6.1083 3.3002,-0.3922 16.9432,-13.1007 16.9432,-15.7826 0,-1.3368 -0.4814,-1.7223 -1.6871,-1.351 -2.9416,0.9061 -14.0603,4.1255 -18.389,5.3245 -2.293,0.6351 -5.5026,2.4291 -7.1326,3.9867 -1.6298,1.5576 -3.4714,2.832 -4.0923,2.832 -1.8805,0 -11.4538,-7.5312 -13.7691,-10.832 -2.6506,-3.7789 -2.955,-12.2308 -0.6481,-17.9962 1.5455,-3.8628 3.6977,-5.3607 11.0755,-7.7088 1.8909,-0.6017 5.1681,-2.7137 7.2827,-4.6932 5.7962,-5.4258 16.5539,-14.0295 19.4471,-15.5533 5.3622,-2.824 12.4134,-3.93 25.127,-3.9413 13.9089,-0.013 21.2216,1.3183 29.0529,5.2867 5.5994,2.8374 5.8622,3.165 13.0174,16.2275 8.0377,14.6737 17.7057,31.2164 36.1981,61.9382 14.9203,24.7873 18.2489,30.2518 30.4938,50.0595 2.9501,4.7721 6.6543,10.8458 8.2317,13.497 1.5774,2.6511 6.0179,9.8093 9.8678,15.9071 3.8499,6.0977 10.8596,17.2885 15.577,24.8684 20.9311,33.6323 54.2881,84.9875 63.93,98.4241 26.6814,37.1823 31.6781,41.9139 48.3209,45.7567 16.5197,3.8145 24.4604,2.9806 40.0954,-4.2106 20.9176,-9.6208 31.8476,-32.5166 26.9084,-56.3666 -1.7991,-8.687 -3.7375,-11.6982 -16.5321,-25.6822 -4.1841,-4.5729 -8.2581,-9.1892 -9.0535,-10.2583 -1.7823,-2.3958 -20.6819,-23.173 -26.639,-29.2855 -2.3989,-2.4615 -5.3038,-5.7795 -6.4555,-7.3736 -1.1517,-1.594 -5.1308,-6.3329 -8.8424,-10.5311 -3.7117,-4.198 -8.2669,-9.5185 -10.1227,-11.8232 -1.8559,-2.3048 -5.5655,-6.8315 -8.2437,-10.0594 -13.0725,-15.7558 -19.6697,-26.3608 -23.7393,-38.1608 -3.5391,-10.2623 -6.5797,-25.745 -6.5797,-33.5041 0,-13.7745 4.6396,-30.5435 11.709,-42.3203 3.9091,-6.5122 14.5081,-18.2074 18.2584,-20.1468 4.8958,-2.5316 12.4515,-1.2864 12.4515,2.0523 0,0.8032 -2.4412,9.7898 -5.4249,19.9705 -9.2257,31.479 -9.6332,35.2211 -5.2489,48.1918 3.9955,11.8202 8.09,18.9882 16.0037,28.0172 7.6342,8.7102 27.4481,28.0134 33.0242,32.1734 1.9706,1.4701 7.0682,5.7109 11.328,9.424 4.2598,3.7131 9.4658,8.1433 11.5688,9.8449 2.103,1.7015 7.1356,5.8229 11.1833,9.1586 12.3252,10.1569 16.6451,13.4753 18.9112,14.5267 1.1931,0.5534 2.1692,1.3336 2.1692,1.7336 0,0.3999 2.1989,2.3413 4.8864,4.3142 4.811,3.5315 8.4094,7.7177 17.6061,20.4816 6.9496,9.6453 10.2196,16.7643 13.2967,28.9476 6.4359,25.4838 1.8615,51.4921 -15.0368,85.4917 -11.2443,22.6237 -24.0529,38.6347 -38.6271,48.2846 -13.8592,9.1766 -36.163,15.0529 -74.6758,19.6745 -8.1434,0.9773 -17.2959,0.971 -27.9579,-0.019 z m -237.199,-393.7484 c 0.6451,-0.7773 0.8752,-2.3028 0.5173,-3.4303 -0.9424,-2.9696 -5.6589,-2.3016 -6.1067,0.8648 -0.5015,3.5471 3.3192,5.3008 5.5894,2.5655 z m 235.0298,265.8683 c -5.4684,-7.5396 -7.4706,-11.095 -7.4679,-13.2613 0.01,-6.4212 6.882,-12.8768 12.4171,-11.6611 1.9668,0.432 3.1159,0.051 4.509,-1.4956 3.1767,-3.5261 5.6405,-3.9111 10.9393,-1.709 4.3951,1.8266 4.8307,2.2968 5.0985,5.5054 0.2443,2.9278 0.6915,3.5555 2.703,3.7941 3.0261,0.3589 7.7127,2.1603 7.712,2.9643 -3e-4,0.3334 -0.8679,2.8884 -1.9281,5.6778 -1.0602,2.7894 -1.9277,5.8919 -1.9277,6.8943 0,1.0468 -1.3798,2.6367 -3.242,3.7354 -1.7832,1.0521 -4.0608,3.5894 -5.0614,5.6386 l -1.8193,3.7258 -7.2305,0.2464 -7.2305,0.2463 z m -20.2123,-35.7667 c -10.602,-8.4254 -23.0613,-27.6256 -23.2775,-35.8711 -0.067,-2.5416 0.6876,-4.6191 2.5761,-7.095 3.8364,-5.0298 5.8567,-5.8914 9.5241,-4.0619 1.6527,0.8245 3.0961,1.499 3.2076,1.499 0.1115,0 1.4234,-1.7612 2.9152,-3.9139 3.7842,-5.4607 6.1068,-6.5669 8.2446,-3.9269 2.0079,2.4796 4.0074,2.5924 7.6641,0.4325 2.2396,-1.323 3.2052,-1.4163 5.2101,-0.5028 1.9463,0.8868 2.4609,1.8168 2.4609,4.4473 0,4.7422 2.1111,6.5037 6.8806,5.7411 l 3.85,-0.6157 -0.6426,5.6799 c -0.5671,5.0129 -0.4046,5.8953 1.3831,7.5132 1.1142,1.0083 2.0258,2.456 2.0258,3.2173 0,2.7938 -8.9358,11.8816 -14.2337,14.4757 l -5.2419,2.5667 0.6149,4.6353 0.6149,4.6353 -4.454,1.9092 c -5.5983,2.3997 -5.31,2.4234 -9.3223,-0.7652 z m -34.2602,-50.8694 c -1.1655,-0.8163 -6.7933,-8.4785 -12.5064,-17.0272 -9.9932,-14.9531 -10.3817,-15.7284 -10.2341,-20.4222 0.085,-2.6835 0.9153,-7.3951 1.8463,-10.4703 1.333,-4.4024 2.1865,-5.7151 4.0144,-6.1739 1.2769,-0.3204 2.8105,-0.093 3.4079,0.5037 2.8602,2.8602 8.7068,0.6444 15.058,-5.7068 3.4441,-3.4442 4.0183,-3.4853 7.52,-0.5387 2.7353,2.3016 2.7544,2.3032 6.0995,0.5224 5.5066,-2.9317 7.8365,-2.2608 8.0727,2.3246 0.1048,2.0357 1.9918,3.3278 8.6383,5.9156 l 3.7149,1.4463 -2.0278,3.4369 c -2.7131,4.5983 -2.5671,6.0527 0.9744,9.7066 l 3.0022,3.0974 -3.0762,1.5908 c -2.8938,1.4965 -3.0378,1.8192 -2.4262,5.4393 1.0699,6.3325 -0.64,8.8704 -8.2367,12.2258 -6.6292,2.9281 -6.6298,2.9287 -6.0853,6.2841 0.6626,4.0831 -1.3524,5.7239 -9.6995,7.898 -6.5966,1.7183 -5.5185,1.7253 -8.0564,-0.052 z m -28.1963,-58.9116 c -8.1766,-2.6651 -8.6456,-3.1554 -21.4157,-22.3791 -7.2198,-10.8685 -12.2079,-19.2993 -11.8973,-20.1086 0.2941,-0.7664 0.5347,-2.3644 0.5347,-3.551 0,-2.2364 8.289,-13.7229 10.9961,-15.2379 1.1199,-0.6267 2.1595,-0.1917 3.8176,1.5975 3.3909,3.6588 5.677,3.1094 10.6323,-2.5552 l 4.3859,-5.0138 2.2585,2.1216 c 2.826,2.655 4.4811,2.6626 8.9239,0.041 2.7628,-1.6302 4.0787,-1.8856 6.0805,-1.1802 2.184,0.7696 2.5547,1.4562 2.5547,4.7315 l 0,3.8313 5.9491,1.9281 c 3.2719,1.0605 6.2491,2.23 6.6158,2.599 0.3668,0.3689 -0.03,2.7144 -0.8805,5.2122 -1.7356,5.0936 -1.2803,6.2159 3.2907,8.1092 3.8292,1.5861 3.6084,2.9191 -1.1125,6.7129 -3.9581,3.1807 -3.9705,3.2114 -3.3701,8.3198 0.6992,5.9483 0.4506,6.191 -8.3347,8.1372 -7.1024,1.5733 -7.8947,2.5354 -5.9401,7.2133 1.1467,2.7445 1.282,4.223 0.5361,5.8601 -1.3932,3.0575 -9.0757,5.0936 -13.625,3.6107 z m -48.6492,-66.9155 c -5.408,-2.6978 -8.7425,-6.1945 -11.073,-11.6121 l -2.0182,-4.6913 3.4064,-6.7641 c 3.6391,-7.2264 4.1695,-7.5227 11.0162,-6.1533 2.0453,0.4091 3.5322,1.5346 4.5002,3.4066 0.9468,1.831 2.4581,2.9982 4.3793,3.3825 3.6574,0.7314 4.2297,2.1492 2.7177,6.731 -1.0938,3.3141 -1.0229,3.7168 0.8761,4.9777 3.8113,2.5305 1.8803,8.3643 -3.7288,11.2649 -3.6189,1.8713 -5.4338,1.7738 -10.0759,-0.5419 z"
           id="path4064"
           inkscape:connector-curvature="0"
           sodipodi:nodetypes="csssscsssscscssscsccscscscsssssscccsscsscscssscscssssscsssssssscsssscssccssccscssssssssssssssscscsssscsssssssscscssssscccsscscccccccsssccccssccssscccssccsscccccscsccccscccccsscssssscccscsccscsccscscccsssccccscccccccscs" />
        <rect
           rx="3.779737"
           ry="3.779737"
           y="1290.134"
           x="910.39069"
           height="24.34757"
           width="155.06714"
           id="rect4066"
           style="fill:#005200;fill-opacity:1;stroke:none" />
        <rect
           rx="2.8939466"
           transform="matrix(-0.49506749,-0.86885452,0.86885452,-0.49506749,0,0)"
           inkscape:transform-center-y="-62.012066"
           inkscape:transform-center-x="30.386583"
           style="fill:#005200;fill-opacity:1;stroke:none"
           id="rect4068"
           width="136.77351"
           height="15.732682"
           x="-1574.3519"
           y="153.1268"
           ry="2.8939466" />
        <path
           inkscape:connector-curvature="0"
           id="path4070"
           d="m 913.6619,1304.232 c -10.06091,1.7346 -17.10554,3.4402 -21.99279,5.3024 -4.88724,1.8622 -7.87536,3.8805 -9.06826,6.8389 -1.19289,2.9583 0.0448,5.9439 1.7775,8.4656 1.73263,2.5218 4.11539,4.9979 6.47733,7.6825 4.72387,5.3691 9.11269,11.2758 8.37534,18.3473 -0.73736,7.0717 -6.75304,16.3448 -25.0055,28.0785 -38.79691,24.9409 -52.36759,43.4517 -56.06655,56.398 -1.84947,6.4732 -1.12843,11.5184 0.15064,14.9129 1.27907,3.3945 3.25373,5.3024 3.25373,5.3024 l 3.16334,-3.3742 c 0,0 -1.11982,-1.0101 -2.07877,-3.555 -0.95894,-2.545 -1.62375,-6.4431 -0.0301,-12.0208 3.18725,-11.1553 15.7798,-29.1371 54.10829,-53.7768 18.79249,-12.081 26.15654,-22.2966 27.11439,-31.4829 0.95785,-9.1862 -4.63848,-16.3238 -9.52016,-21.8723 -2.44084,-2.7742 -4.75979,-5.2431 -6.14593,-7.2606 -1.38615,-2.0175 -1.67391,-3.1587 -1.29547,-4.0973 0.37845,-0.9385 2.06685,-2.5788 6.4472,-4.2479 4.38036,-1.6691 11.21004,-3.383 21.1191,-5.0915 l -0.7833,-4.5492 z"
           style="font-size:medium;font-style:normal;font-variant:normal;font-weight:normal;font-stretch:normal;text-indent:0;text-align:start;text-decoration:none;line-height:normal;letter-spacing:normal;word-spacing:normal;text-transform:none;direction:ltr;block-progression:tb;writing-mode:lr-tb;text-anchor:start;baseline-shift:baseline;color:#000000;fill:#005200;fill-opacity:1;stroke:none;stroke-width:4.80000019;marker:none;visibility:visible;display:inline;overflow:visible;enable-background:accumulate;font-family:Sans;-inkscape-font-specification:Sans" />
      </g>
    </g>
    <text
       xml:space="preserve"
       style="font-size:40px;font-style:normal;font-weight:normal;line-height:125%;letter-spacing:0px;word-spacing:0px;fill:#005200;fill-opacity:1;stroke:none;font-family:Sans"
       x="567.33435"
       y="2860.2849"
       id="text3912"
       sodipodi:linespacing="125%"><tspan
         sodipodi:role="line"
         x="567.33435"
         y="2860.2849"
         style="font-size:24px;text-align:center;text-anchor:middle"
         id="tspan5100">Máš nápad? Chceš sa pridať?</tspan></text>
    <text
       sodipodi:linespacing="125%"
       id="text5116"
       y="3350.0867"
       x="115"
       style="font-size:40px;font-style:normal;font-weight:normal;line-height:125%;letter-spacing:0px;word-spacing:0px;fill:#005200;fill-opacity:1;stroke:none;font-family:Sans"
       xml:space="preserve"><tspan
         style="font-size:18px;font-weight:bold;-inkscape-font-specification:Sans Bold"
         id="tspan5118"
         y="3350.0867"
         x="115"
         sodipodi:role="line">Votr</tspan></text>
    <flowRoot
       transform="translate(-10,2909.0867)"
       style="font-size:40px;font-style:normal;font-weight:normal;line-height:125%;letter-spacing:0px;word-spacing:0px;fill:#000000;fill-opacity:1;stroke:none;font-family:Sans"
       id="flowRoot5120"
       xml:space="preserve"><flowRegion
         id="flowRegion5122"><rect
           y="454"
           x="126"
           height="70.908081"
           width="510.82336"
           id="rect5124" /></flowRegion><flowPara
         style="font-size:14px"
         id="flowPara5126">Votr ponúka študentom jednoduchší a pohodlnejší spôsob, ako robiť najčastejšie činnosti zo systému AIS. Zapíšte sa na skúšky, prezrite si vaše hodnotenia a skontrolujte si počet kreditov bez zbytočného klikania.</flowPara><flowPara
         style="font-size:14px"
         id="flowPara5128" /><flowPara
         style="font-size:14px"
         id="flowPara5130" /></flowRoot>    <flowRoot
       xml:space="preserve"
       id="flowRoot5132"
       style="font-size:40px;font-style:normal;font-weight:normal;line-height:125%;letter-spacing:0px;word-spacing:0px;fill:#005200;fill-opacity:1;stroke:none;font-family:Sans"
       transform="translate(70,2881.0867)"><flowRegion
         id="flowRegion5134"><rect
           style="fill:#005200"
           id="rect5136"
           width="299"
           height="46"
           x="126"
           y="454" /></flowRegion><flowPara
         id="flowPara5138"
         style="font-size:14px;fill:#005200">https://votr.uniba.sk/</flowPara></flowRoot>    <g
       style="fill:#005200;fill-opacity:1;stroke:none"
       transform="matrix(-0.31966193,0,0,0.31966193,-100.20491,2282.2555)"
       id="g6188"
       inkscape:export-filename="/home/kamila/projects/fmfi-svt.github.io/assets/logo.png"
       inkscape:export-xdpi="90"
       inkscape:export-ydpi="90">
      <path
         sodipodi:nodetypes="ccscssssssscccscc"
         inkscape:transform-center-y="-4.7842558"
         inkscape:transform-center-x="76.857586"
         inkscape:connector-curvature="0"
         id="path6190"
         d="m 954.89039,1254.3984 c 12.00536,-15.6411 32.58195,-15.7348 52.88761,-9.377 0.8311,0.248 15.9394,-2.2032 33.5741,-5.4472 45.3412,-8.341 87.4674,-15.1986 92.7446,-15.0976 2.4735,0.047 5.6165,-0.1417 6.9846,-0.4201 4.5666,-0.9292 10.7402,5.4187 14.2109,14.6122 2.8471,7.5411 3.0257,9.4109 1.5219,15.9252 -2.6112,11.3091 -14.7616,26.553 -22.3265,28.0111 -6.2222,1.1993 -13.8721,1.3142 -21.956,0.3298 -4.825,-0.5875 -15.2952,-1.1198 -23.267,-1.1828 -21.7713,-0.1718 -50.4099,-1.098 -74.7532,-2.4177 -20.94822,-1.1357 -21.89125,-1.1009 -25.04158,0.9225 -8.16077,2.2978 -13.87144,-4.8125 -18.54921,-3.914 -6.04924,1.1622 -6.4403,5.0459 -7.8388,6.8602 -1.33302,-0.2858 -2.77936,-3.3186 -4.78313,-3.027 -2.00376,0.2915 -2.68708,4.0719 -4.24124,4.2627 -5.62412,-9.3394 -4.91404,-19.649 0.8333,-30.0403 z"
         style="fill:#005200;fill-opacity:1;stroke:none" />
      <path
         style="fill:#005200;fill-opacity:1;stroke:none"
         d="m 1069.3681,1568.0523 c -1.0277,-1.2002 -2.844,-1.9281 -4.8109,-1.9281 -1.8165,0 -3.16,-0.4923 -3.16,-1.1579 0,-1.7541 10.313,-11.4144 17.122,-16.0383 6.479,-4.3998 19.0718,-10.7618 21.3017,-10.7618 3.3678,0 8.8156,-2.3284 8.8158,-3.7678 2e-4,-0.8441 -1.0476,-5.2221 -2.3284,-9.7291 -5.6248,-19.794 -12.5173,-44.2159 -13.6043,-48.2034 -2.6312,-9.6522 1.4402,-22.1468 12.0943,-37.1166 7.8277,-10.9986 37.3661,-40.7429 51.5596,-51.9192 15.0765,-11.8715 17.9497,-13.158 29.3522,-13.144 10.6009,0.014 16.6265,1.3863 25.2547,5.7549 13.4853,6.8277 20.0832,15.2438 20.0992,25.6381 0.014,8.9388 -5.2579,23.048 -12.6835,33.9463 -1.703,2.4994 -9.5011,11.0517 -17.3292,19.0053 -20.1099,20.4318 -32.0245,34.2528 -35.4664,41.1407 l -2.9606,5.9245 0,29.6693 c 0,16.9445 -0.4033,30.73 -0.9402,32.1423 l -0.9402,2.4729 -44.8624,0 c -43.6695,0 -44.9064,-0.051 -46.5134,-1.9281 z m 103.8609,-19.7873 c 0,-0.8084 -1.0845,-1.8823 -2.4101,-2.3862 -1.3256,-0.5041 -2.4102,-1.3221 -2.4102,-1.8178 0,-1.4775 7.1864,-10.1145 11.458,-13.7709 2.1858,-1.871 7.4432,-5.2688 11.6832,-7.5509 4.24,-2.282 7.709,-4.5617 7.709,-5.0657 0,-0.5041 -1.1408,-4.5753 -2.5351,-9.0472 -1.3942,-4.4717 -2.2547,-8.4107 -1.9123,-8.7531 0.3425,-0.3425 1.8086,0.3367 3.2581,1.5092 9.9026,8.0106 20.9605,13.5032 35.8238,17.7943 4.3819,1.265 8.3532,2.9099 8.825,3.6554 0.472,0.7453 0.8647,6.84 0.8728,13.5438 0.012,10.2342 -0.2297,12.2826 -1.5102,12.7739 -0.8387,0.3218 -16.6735,0.5852 -35.1885,0.5852 -29.5232,0 -33.6635,-0.1808 -33.6635,-1.47 z m 156.179,-16.8741 c -23.2462,-2.1587 -46.538,-5.9104 -62.6046,-10.0838 -13.8623,-3.6008 -36.3847,-11.8093 -46.3721,-16.9004 -13.4361,-6.8493 -29.8724,-18.9915 -29.8242,-22.0325 0.014,-0.8635 2.1429,-3.0063 4.7315,-4.7616 5.1903,-3.5197 21.8159,-20.229 24.652,-24.7762 0.9888,-1.5853 2.5951,-3.7884 3.5697,-4.8958 0.9746,-1.1074 4.2964,-6.9906 7.3819,-13.0739 5.0773,-10.0104 5.7723,-12.135 7.3208,-22.3787 1.6356,-10.82 1.636,-11.5175 0.01,-15.8481 -2.1685,-5.7731 -4.0983,-8.5061 -10.3465,-14.6526 -10.157,-9.9915 -27.1444,-16.8638 -41.6819,-16.8622 -11.0536,10e-4 -16.4548,1.8389 -27.3395,9.3015 -10.806,7.4089 -15.0464,10.7899 -26.2227,20.9089 -11.9571,10.8256 -15.4659,13.6457 -16.9786,13.6457 -1.7471,0 -3.7531,-3.3716 -7.5562,-12.7001 -6.8973,-16.9176 -9.2954,-41.4057 -5.2589,-53.7013 l 1.9643,-5.9835 -2.4306,-5.5035 c -5.0989,-11.5449 -6.37,-21.0629 -4.3487,-32.5613 2.0273,-11.5314 2.5143,-9.2083 11.4811,-8.6978 6.2841,0.3579 18.0103,1.9751 23.1838,0.595 18.2546,-4.8699 30.3926,-17.0906 33.9847,-34.2163 0.9582,-4.5683 0.8682,-6.7523 -0.5699,-13.8176 -2.8313,-13.9106 -8.7332,-21.5891 -18.5596,-24.1465 -12.7646,-3.3221 -16.6955,0.3421 -37.5108,2.024 l -2.8922,0.2337 0.3234,-9.7704 c 0.3452,-10.432 -2.0072,-12.9215 -14.7844,-14.3391 -7.0493,-0.782 -15.8592,-2.757 -18.4256,-4.1305 -1.0429,-0.5581 -2.5097,-2.1612 -3.2595,-3.5623 -1.7218,-3.2172 -0.3987,-5.6693 3.2958,-6.1083 3.3002,-0.3922 16.9432,-13.1007 16.9432,-15.7826 0,-1.3368 -0.4814,-1.7223 -1.6871,-1.351 -2.9416,0.9061 -14.0603,4.1255 -18.389,5.3245 -2.293,0.6351 -5.5026,2.4291 -7.1326,3.9867 -1.6298,1.5576 -3.4714,2.832 -4.0923,2.832 -1.8805,0 -11.4538,-7.5312 -13.7691,-10.832 -2.6506,-3.7789 -2.955,-12.2308 -0.6481,-17.9962 1.5455,-3.8628 3.6977,-5.3607 11.0755,-7.7088 1.8909,-0.6017 5.1681,-2.7137 7.2827,-4.6932 5.7962,-5.4258 16.5539,-14.0295 19.4471,-15.5533 5.3622,-2.824 12.4134,-3.93 25.127,-3.9413 13.9089,-0.013 21.2216,1.3183 29.0529,5.2867 5.5994,2.8374 5.8622,3.165 13.0174,16.2275 8.0377,14.6737 17.7057,31.2164 36.1981,61.9382 14.9203,24.7873 18.2489,30.2518 30.4938,50.0595 2.9501,4.7721 6.6543,10.8458 8.2317,13.497 1.5774,2.6511 6.0179,9.8093 9.8678,15.9071 3.8499,6.0977 10.8596,17.2885 15.577,24.8684 20.9311,33.6323 54.2881,84.9875 63.93,98.4241 26.6814,37.1823 31.6781,41.9139 48.3209,45.7567 16.5197,3.8145 24.4604,2.9806 40.0954,-4.2106 20.9176,-9.6208 31.8476,-32.5166 26.9084,-56.3666 -1.7991,-8.687 -3.7375,-11.6982 -16.5321,-25.6822 -4.1841,-4.5729 -8.2581,-9.1892 -9.0535,-10.2583 -1.7823,-2.3958 -20.6819,-23.173 -26.639,-29.2855 -2.3989,-2.4615 -5.3038,-5.7795 -6.4555,-7.3736 -1.1517,-1.594 -5.1308,-6.3329 -8.8424,-10.5311 -3.7117,-4.198 -8.2669,-9.5185 -10.1227,-11.8232 -1.8559,-2.3048 -5.5655,-6.8315 -8.2437,-10.0594 -13.0725,-15.7558 -19.6697,-26.3608 -23.7393,-38.1608 -3.5391,-10.2623 -6.5797,-25.745 -6.5797,-33.5041 0,-13.7745 4.6396,-30.5435 11.709,-42.3203 3.9091,-6.5122 14.5081,-18.2074 18.2584,-20.1468 4.8958,-2.5316 12.4515,-1.2864 12.4515,2.0523 0,0.8032 -2.4412,9.7898 -5.4249,19.9705 -9.2257,31.479 -9.6332,35.2211 -5.2489,48.1918 3.9955,11.8202 8.09,18.9882 16.0037,28.0172 7.6342,8.7102 27.4481,28.0134 33.0242,32.1734 1.9706,1.4701 7.0682,5.7109 11.328,9.424 4.2598,3.7131 9.4658,8.1433 11.5688,9.8449 2.103,1.7015 7.1356,5.8229 11.1833,9.1586 12.3252,10.1569 16.6451,13.4753 18.9112,14.5267 1.1931,0.5534 2.1692,1.3336 2.1692,1.7336 0,0.3999 2.1989,2.3413 4.8864,4.3142 4.811,3.5315 8.4094,7.7177 17.6061,20.4816 6.9496,9.6453 10.2196,16.7643 13.2967,28.9476 6.4359,25.4838 1.8615,51.4921 -15.0368,85.4917 -11.2443,22.6237 -24.0529,38.6347 -38.6271,48.2846 -13.8592,9.1766 -36.163,15.0529 -74.6758,19.6745 -8.1434,0.9773 -17.2959,0.971 -27.9579,-0.019 z m -237.199,-393.7484 c 0.6451,-0.7773 0.8752,-2.3028 0.5173,-3.4303 -0.9424,-2.9696 -5.6589,-2.3016 -6.1067,0.8648 -0.5015,3.5471 3.3192,5.3008 5.5894,2.5655 z m 235.0298,265.8683 c -5.4684,-7.5396 -7.4706,-11.095 -7.4679,-13.2613 0.01,-6.4212 6.882,-12.8768 12.4171,-11.6611 1.9668,0.432 3.1159,0.051 4.509,-1.4956 3.1767,-3.5261 5.6405,-3.9111 10.9393,-1.709 4.3951,1.8266 4.8307,2.2968 5.0985,5.5054 0.2443,2.9278 0.6915,3.5555 2.703,3.7941 3.0261,0.3589 7.7127,2.1603 7.712,2.9643 -3e-4,0.3334 -0.8679,2.8884 -1.9281,5.6778 -1.0602,2.7894 -1.9277,5.8919 -1.9277,6.8943 0,1.0468 -1.3798,2.6367 -3.242,3.7354 -1.7832,1.0521 -4.0608,3.5894 -5.0614,5.6386 l -1.8193,3.7258 -7.2305,0.2464 -7.2305,0.2463 z m -20.2123,-35.7667 c -10.602,-8.4254 -23.0613,-27.6256 -23.2775,-35.8711 -0.067,-2.5416 0.6876,-4.6191 2.5761,-7.095 3.8364,-5.0298 5.8567,-5.8914 9.5241,-4.0619 1.6527,0.8245 3.0961,1.499 3.2076,1.499 0.1115,0 1.4234,-1.7612 2.9152,-3.9139 3.7842,-5.4607 6.1068,-6.5669 8.2446,-3.9269 2.0079,2.4796 4.0074,2.5924 7.6641,0.4325 2.2396,-1.323 3.2052,-1.4163 5.2101,-0.5028 1.9463,0.8868 2.4609,1.8168 2.4609,4.4473 0,4.7422 2.1111,6.5037 6.8806,5.7411 l 3.85,-0.6157 -0.6426,5.6799 c -0.5671,5.0129 -0.4046,5.8953 1.3831,7.5132 1.1142,1.0083 2.0258,2.456 2.0258,3.2173 0,2.7938 -8.9358,11.8816 -14.2337,14.4757 l -5.2419,2.5667 0.6149,4.6353 0.6149,4.6353 -4.454,1.9092 c -5.5983,2.3997 -5.31,2.4234 -9.3223,-0.7652 z m -34.2602,-50.8694 c -1.1655,-0.8163 -6.7933,-8.4785 -12.5064,-17.0272 -9.9932,-14.9531 -10.3817,-15.7284 -10.2341,-20.4222 0.085,-2.6835 0.9153,-7.3951 1.8463,-10.4703 1.333,-4.4024 2.1865,-5.7151 4.0144,-6.1739 1.2769,-0.3204 2.8105,-0.093 3.4079,0.5037 2.8602,2.8602 8.7068,0.6444 15.058,-5.7068 3.4441,-3.4442 4.0183,-3.4853 7.52,-0.5387 2.7353,2.3016 2.7544,2.3032 6.0995,0.5224 5.5066,-2.9317 7.8365,-2.2608 8.0727,2.3246 0.1048,2.0357 1.9918,3.3278 8.6383,5.9156 l 3.7149,1.4463 -2.0278,3.4369 c -2.7131,4.5983 -2.5671,6.0527 0.9744,9.7066 l 3.0022,3.0974 -3.0762,1.5908 c -2.8938,1.4965 -3.0378,1.8192 -2.4262,5.4393 1.0699,6.3325 -0.64,8.8704 -8.2367,12.2258 -6.6292,2.9281 -6.6298,2.9287 -6.0853,6.2841 0.6626,4.0831 -1.3524,5.7239 -9.6995,7.898 -6.5966,1.7183 -5.5185,1.7253 -8.0564,-0.052 z m -28.1963,-58.9116 c -8.1766,-2.6651 -8.6456,-3.1554 -21.4157,-22.3791 -7.2198,-10.8685 -12.2079,-19.2993 -11.8973,-20.1086 0.2941,-0.7664 0.5347,-2.3644 0.5347,-3.551 0,-2.2364 8.289,-13.7229 10.9961,-15.2379 1.1199,-0.6267 2.1595,-0.1917 3.8176,1.5975 3.3909,3.6588 5.677,3.1094 10.6323,-2.5552 l 4.3859,-5.0138 2.2585,2.1216 c 2.826,2.655 4.4811,2.6626 8.9239,0.041 2.7628,-1.6302 4.0787,-1.8856 6.0805,-1.1802 2.184,0.7696 2.5547,1.4562 2.5547,4.7315 l 0,3.8313 5.9491,1.9281 c 3.2719,1.0605 6.2491,2.23 6.6158,2.599 0.3668,0.3689 -0.03,2.7144 -0.8805,5.2122 -1.7356,5.0936 -1.2803,6.2159 3.2907,8.1092 3.8292,1.5861 3.6084,2.9191 -1.1125,6.7129 -3.9581,3.1807 -3.9705,3.2114 -3.3701,8.3198 0.6992,5.9483 0.4506,6.191 -8.3347,8.1372 -7.1024,1.5733 -7.8947,2.5354 -5.9401,7.2133 1.1467,2.7445 1.282,4.223 0.5361,5.8601 -1.3932,3.0575 -9.0757,5.0936 -13.625,3.6107 z m -48.6492,-66.9155 c -5.408,-2.6978 -8.7425,-6.1945 -11.073,-11.6121 l -2.0182,-4.6913 3.4064,-6.7641 c 3.6391,-7.2264 4.1695,-7.5227 11.0162,-6.1533 2.0453,0.4091 3.5322,1.5346 4.5002,3.4066 0.9468,1.831 2.4581,2.9982 4.3793,3.3825 3.6574,0.7314 4.2297,2.1492 2.7177,6.731 -1.0938,3.3141 -1.0229,3.7168 0.8761,4.9777 3.8113,2.5305 1.8803,8.3643 -3.7288,11.2649 -3.6189,1.8713 -5.4338,1.7738 -10.0759,-0.5419 z"
         id="path6192"
         inkscape:connector-curvature="0"
         sodipodi:nodetypes="csssscsssscscssscsccscscscsssssscccsscsscscssscscssssscsssssssscsssscssccssccscssssssssssssssscscsssscsssssssscscssssscccsscscccccccsssccccssccssscccssccsscccccscsccccscccccsscssssscccscsccscsccscscccsssccccscccccccscs" />
      <rect
         rx="3.779737"
         ry="3.779737"
         y="1290.134"
         x="910.39069"
         height="24.34757"
         width="155.06714"
         id="rect6194"
         style="fill:#005200;fill-opacity:1;stroke:none" />
      <rect
         rx="2.8939466"
         transform="matrix(-0.49506749,-0.86885452,0.86885452,-0.49506749,0,0)"
         inkscape:transform-center-y="-62.012066"
         inkscape:transform-center-x="30.386583"
         style="fill:#005200;fill-opacity:1;stroke:none"
         id="rect6196"
         width="136.77351"
         height="15.732682"
         x="-1574.3519"
         y="153.1268"
         ry="2.8939466" />
      <path
         inkscape:connector-curvature="0"
         id="path6198"
         d="m 913.6619,1304.232 c -10.06091,1.7346 -17.10554,3.4402 -21.99279,5.3024 -4.88724,1.8622 -7.87536,3.8805 -9.06826,6.8389 -1.19289,2.9583 0.0448,5.9439 1.7775,8.4656 1.73263,2.5218 4.11539,4.9979 6.47733,7.6825 4.72387,5.3691 9.11269,11.2758 8.37534,18.3473 -0.73736,7.0717 -6.75304,16.3448 -25.0055,28.0785 -38.79691,24.9409 -52.36759,43.4517 -56.06655,56.398 -1.84947,6.4732 -1.12843,11.5184 0.15064,14.9129 1.27907,3.3945 3.25373,5.3024 3.25373,5.3024 l 3.16334,-3.3742 c 0,0 -1.11982,-1.0101 -2.07877,-3.555 -0.95894,-2.545 -1.62375,-6.4431 -0.0301,-12.0208 3.18725,-11.1553 15.7798,-29.1371 54.10829,-53.7768 18.79249,-12.081 26.15654,-22.2966 27.11439,-31.4829 0.95785,-9.1862 -4.63848,-16.3238 -9.52016,-21.8723 -2.44084,-2.7742 -4.75979,-5.2431 -6.14593,-7.2606 -1.38615,-2.0175 -1.67391,-3.1587 -1.29547,-4.0973 0.37845,-0.9385 2.06685,-2.5788 6.4472,-4.2479 4.38036,-1.6691 11.21004,-3.383 21.1191,-5.0915 l -0.7833,-4.5492 z"
         style="font-size:medium;font-style:normal;font-variant:normal;font-weight:normal;font-stretch:normal;text-indent:0;text-align:start;text-decoration:none;line-height:normal;letter-spacing:normal;word-spacing:normal;text-transform:none;direction:ltr;block-progression:tb;writing-mode:lr-tb;text-anchor:start;baseline-shift:baseline;color:#000000;fill:#005200;fill-opacity:1;stroke:none;stroke-width:4.80000019;marker:none;visibility:visible;display:inline;overflow:visible;enable-background:accumulate;font-family:Sans;-inkscape-font-specification:Sans" />
    </g>
  </g>
</svg>
